<?xml version="1.0" encoding="UTF-8" standalone="no"?>
<svg
   xmlns:dc="http://purl.org/dc/elements/1.1/"
   xmlns:cc="http://creativecommons.org/ns#"
   xmlns:rdf="http://www.w3.org/1999/02/22-rdf-syntax-ns#"
   xmlns:svg="http://www.w3.org/2000/svg"
   xmlns="http://www.w3.org/2000/svg"
   xmlns:sodipodi="http://sodipodi.sourceforge.net/DTD/sodipodi-0.dtd"
   xmlns:inkscape="http://www.inkscape.org/namespaces/inkscape"
   sodipodi:docname="ani.svg"
   inkscape:version="1.0 (4035a4fb49, 2020-05-01)"
   id="svg2316"
   version="1.1"
   viewBox="0 0 6.1839499 6.1835899"
   height="6.1835899mm"
   width="6.1839499mm">
  <defs
     id="defs2310" />
  <sodipodi:namedview
     inkscape:window-maximized="1"
     inkscape:window-y="-8"
     inkscape:window-x="56"
     inkscape:window-height="1417"
     inkscape:window-width="2496"
     fit-margin-bottom="0"
     fit-margin-right="0"
     fit-margin-left="0"
     fit-margin-top="0"
     showgrid="false"
     inkscape:document-rotation="0"
     inkscape:current-layer="layer1"
     inkscape:document-units="mm"
     inkscape:cy="11.515563"
     inkscape:cx="22.288744"
     inkscape:zoom="15.839192"
     inkscape:pageshadow="2"
     inkscape:pageopacity="0.0"
     borderopacity="1.0"
     bordercolor="#666666"
     pagecolor="#ffffff"
     id="base" />
  <metadata
     id="metadata2313">
    <rdf:RDF>
      <cc:Work
         rdf:about="">
        <dc:format>image/svg+xml</dc:format>
        <dc:type
           rdf:resource="http://purl.org/dc/dcmitype/StillImage" />
        <dc:title></dc:title>
      </cc:Work>
    </rdf:RDF>
  </metadata>
  <g
     transform="translate(-108.78898,157.30608)"
     id="layer1"
     inkscape:groupmode="layer"
     inkscape:label="Calque 1">
    <path
       d="m 114.97293,-151.12249 v -6.18359 h -6.18395 v 6.18359 z"
       style="fill:#ffffff;fill-opacity:1;fill-rule:nonzero;stroke:none;stroke-width:0.352777"
       id="path1386" />
    <path
       d="m 114.53989,-151.55556 v -5.31784 h -5.31802 v 5.31784 z"
       style="fill:#000000;fill-opacity:1;fill-rule:nonzero;stroke:none;stroke-width:0.352777"
       id="path1388" />
    <path
       d="m 110.49914,-153.18543 c 0,0 0.26458,-0.49988 0.50003,-0.58808 0.23498,-0.0882 0.58776,-0.38206 0.70538,-0.44097 0.11751,-0.0586 0.26458,-0.0586 0.44114,0.0589 0.17639,0.11748 0.85235,0.47026 0.88195,0.79375 0.0291,0.3235 0.0291,0.82303 -0.23545,0.94086 -0.26458,0.11748 -0.4997,0.14676 -0.55848,-0.11783 -0.0589,-0.26458 0.0293,-0.58772 0.0293,-0.58772 0,0 -0.11734,-0.23531 -0.26459,-0.29422 -0.14693,-0.0586 -0.17638,-0.0293 -0.17638,-0.0293 0,0 0.0882,0.58808 -0.20553,0.79375 -0.35278,0.29386 -0.67642,0.20567 -0.941,-0.0293 -0.26458,-0.2353 -0.17639,-0.49989 -0.17639,-0.49989 z"
       style="fill:#ffffff;fill-opacity:1;fill-rule:nonzero;stroke:none;stroke-width:0.352777"
       id="path1394" />
    <path
       d="m 111.26375,-155.89017 c -1.8e-4,0 -0.44097,0.76447 -0.41183,1.26435 0.0294,0.49953 0.38223,0.44097 0.38223,0.44097 0,0 0.35278,-0.1471 0.41152,-0.44097 0.0589,-0.29422 -0.14693,-0.91158 -0.14693,-0.91158 z"
       style="fill:#ffffff;fill-opacity:1;fill-rule:nonzero;stroke:none;stroke-width:0.352777"
       id="path1396" />
    <path
       d="m 112.46887,-155.94874 c 0,0 -0.41137,0.41134 -0.41137,0.73484 0,0.3235 0.0586,0.76447 0.38192,0.91123 0.32364,0.1471 0.41183,-0.14676 0.41183,-0.32315 0,-0.17639 0,-0.64699 -0.11779,-0.85266 -0.11765,-0.20567 -0.26459,-0.47026 -0.26459,-0.47026 z"
       style="fill:#ffffff;fill-opacity:1;fill-rule:nonzero;stroke:none;stroke-width:0.352777"
       id="path1398" />
    <path
       d="m 113.645,-154.9786 c -1.8e-4,0 -0.41183,0.29387 -0.52917,0.58773 -0.11779,0.29422 -0.059,0.61736 0.0586,0.73519 0.11779,0.11748 0.35278,0.38206 0.47057,0.23495 0.11733,-0.14676 0.0586,-0.47025 0.0291,-0.70556 -0.0291,-0.23495 -0.0291,-0.85231 -0.0291,-0.85231 z"
       style="fill:#ffffff;fill-opacity:1;fill-rule:nonzero;stroke:none;stroke-width:0.352777"
       id="path1400" />
    <path
       d="m 110.17582,-155.03751 c 0,0 0.47039,0.29386 0.49971,0.76447 0.0295,0.47025 -0.14693,0.76412 -0.38192,0.70555 -0.23544,-0.0589 -0.23544,-0.32349 -0.20599,-0.61736 0.0294,-0.29421 0.0882,-0.85266 0.0882,-0.85266 z"
       style="fill:#ffffff;fill-opacity:1;fill-rule:nonzero;stroke:none;stroke-width:0.352777"
       id="path1402" />
  </g>
</svg>
