<?xml version="1.0" encoding="UTF-8" standalone="no"?>
<svg
   xmlns:dc="http://purl.org/dc/elements/1.1/"
   xmlns:cc="http://creativecommons.org/ns#"
   xmlns:rdf="http://www.w3.org/1999/02/22-rdf-syntax-ns#"
   xmlns:svg="http://www.w3.org/2000/svg"
   xmlns="http://www.w3.org/2000/svg"
   xmlns:sodipodi="http://sodipodi.sourceforge.net/DTD/sodipodi-0.dtd"
   xmlns:inkscape="http://www.inkscape.org/namespaces/inkscape"
   sodipodi:docname="aus.svg"
   inkscape:version="1.0 (4035a4fb49, 2020-05-01)"
   id="svg4148"
   version="1.1"
   viewBox="0 0 6.1839399 6.183948"
   height="6.183948mm"
   width="6.1839399mm">
  <defs
     id="defs4142" />
  <sodipodi:namedview
     inkscape:window-maximized="1"
     inkscape:window-y="-8"
     inkscape:window-x="56"
     inkscape:window-height="1417"
     inkscape:window-width="2496"
     fit-margin-bottom="0"
     fit-margin-right="0"
     fit-margin-left="0"
     fit-margin-top="0"
     showgrid="false"
     inkscape:document-rotation="0"
     inkscape:current-layer="layer1"
     inkscape:document-units="mm"
     inkscape:cy="437.40049"
     inkscape:cx="-488.31381"
     inkscape:zoom="0.35"
     inkscape:pageshadow="2"
     inkscape:pageopacity="0.0"
     borderopacity="1.0"
     bordercolor="#666666"
     pagecolor="#ffffff"
     id="base" />
  <metadata
     id="metadata4145">
    <rdf:RDF>
      <cc:Work
         rdf:about="">
        <dc:format>image/svg+xml</dc:format>
        <dc:type
           rdf:resource="http://purl.org/dc/dcmitype/StillImage" />
        <dc:title></dc:title>
      </cc:Work>
    </rdf:RDF>
  </metadata>
  <g
     transform="translate(-235.03303,-32.437788)"
     id="layer1"
     inkscape:groupmode="layer"
     inkscape:label="Calque 1">
    <path
       id="path1414"
       style="fill:#ffffff;fill-opacity:1;fill-rule:nonzero;stroke:none;stroke-width:0.352777"
       d="m 241.21697,38.621736 v -6.183948 h -6.18394 v 6.183948 z" />
    <path
       id="path1416"
       style="fill:#000000;fill-opacity:1;fill-rule:nonzero;stroke:none;stroke-width:0.352777"
       d="m 240.78394,38.189019 v -5.318196 h -5.31802 v 5.318196 z" />
    <path
       id="path1430"
       style="fill:#ffffff;fill-opacity:1;fill-rule:nonzero;stroke:none;stroke-width:0.352777"
       d="m 235.80162,35.610037 c -1.7e-4,0 1.10554,-1.362887 2.00558,-1.440075 0.90018,-0.07715 1.51723,0.128517 2.0314,0.668373 0.51435,0.540174 0.66869,0.797172 0.66869,0.797172 0,0 -0.79703,1.208546 -1.59424,1.388745 -0.79735,0.180164 -1.44004,0.102976 -1.9287,-0.282857 -0.48871,-0.385868 -1.18273,-1.131358 -1.18273,-1.131358 z" />
    <path
       id="path1432"
       style="fill:#000000;fill-opacity:1;fill-rule:nonzero;stroke:none;stroke-width:0.352777"
       d="m 238.32155,36.545039 c 0.6797,0 1.23091,-0.550898 1.23091,-1.230595 0,-0.680085 -0.55121,-1.2313 -1.23091,-1.2313 -0.67973,0 -1.23095,0.551215 -1.23095,1.2313 0,0.679697 0.55122,1.230595 1.23095,1.230595 z" />
    <path
       id="path1434"
       style="fill:#ffffff;fill-opacity:1;fill-rule:nonzero;stroke:none;stroke-width:0.352777"
       d="m 238.32155,36.26458 c 0.52469,0 0.95031,-0.425802 0.95031,-0.950136 0,-0.525039 -0.42562,-0.950524 -0.95031,-0.950524 -0.52486,0 -0.95017,0.425485 -0.95017,0.950524 0,0.524334 0.42531,0.950136 0.95017,0.950136 z" />
    <path
       id="path1436"
       style="fill:#000000;fill-opacity:1;fill-rule:nonzero;stroke:none;stroke-width:0.352777"
       d="m 237.75569,35.455696 c 0,0 0.77153,0.231493 0.74602,-0.720054 -1.7e-4,0 0.48835,0.07719 0.41134,0.822713 -1.7e-4,0 -0.25735,0.591502 -0.74584,0.360009 -0.48853,-0.231175 -0.41152,-0.462668 -0.41152,-0.462668 z" />
  </g>
</svg>
