<?xml version="1.0" encoding="UTF-8" standalone="no"?>
<!-- Created with Inkscape (http://www.inkscape.org/) -->

<svg
   xmlns:dc="http://purl.org/dc/elements/1.1/"
   xmlns:cc="http://creativecommons.org/ns#"
   xmlns:rdf="http://www.w3.org/1999/02/22-rdf-syntax-ns#"
   xmlns:svg="http://www.w3.org/2000/svg"
   xmlns="http://www.w3.org/2000/svg"
   xmlns:sodipodi="http://sodipodi.sourceforge.net/DTD/sodipodi-0.dtd"
   xmlns:inkscape="http://www.inkscape.org/namespaces/inkscape"
   version="1.1"
   id="svg1372"
   xml:space="preserve"
   width="301.33133"
   height="332.52478"
   viewBox="0 0 301.33133 332.52478"
   sodipodi:docname="disciplines2.ai"><metadata
     id="metadata1378"><rdf:RDF><cc:Work
         rdf:about=""><dc:format>image/svg+xml</dc:format><dc:type
           rdf:resource="http://purl.org/dc/dcmitype/StillImage" /></cc:Work></rdf:RDF></metadata><defs
     id="defs1376" /><sodipodi:namedview
     pagecolor="#ffffff"
     bordercolor="#666666"
     borderopacity="1"
     objecttolerance="10"
     gridtolerance="10"
     guidetolerance="10"
     inkscape:pageopacity="0"
     inkscape:pageshadow="2"
     inkscape:window-width="640"
     inkscape:window-height="480"
     id="namedview1374"
     showgrid="false"
     fit-margin-top="0"
     fit-margin-left="0"
     fit-margin-right="0"
     fit-margin-bottom="0" /><g
     id="g1380"
     inkscape:groupmode="layer"
     inkscape:label="disciplines2"
     transform="matrix(1.3333333,0,0,-1.3333333,-269.19466,549.49999)"><path
       d="m 219.4253,275.6113 v 17.5293 H 201.896 v -17.5293 z"
       style="fill:#ffffff;fill-opacity:1;fill-rule:nonzero;stroke:none"
       id="path1446" /><path
       d="m 218.1978,276.8389 v 15.0742 H 203.123 v -15.0742 z"
       style="fill:#000000;fill-opacity:1;fill-rule:nonzero;stroke:none"
       id="path1448" /><path
       d="m 248.062,284.126 -12.395,12.3945 -12.395,-12.3945 12.395,-12.3946 z"
       style="fill:#ffffff;fill-opacity:1;fill-rule:nonzero;stroke:none"
       id="path1450" /><path
       d="M 246.3262,284.126 235.667,294.7852 225.0078,284.126 235.667,273.4668 Z"
       style="fill:#000000;fill-opacity:1;fill-rule:nonzero;stroke:none"
       id="path1452" /><path
       d="m 221.5503,239.7363 v 17.5293 H 204.021 v -17.5293 z"
       style="fill:#ffffff;fill-opacity:1;fill-rule:nonzero;stroke:none"
       id="path1454" /><path
       d="m 220.3228,240.9639 v 15.0742 h -15.0743 v -15.0742 z"
       style="fill:#000000;fill-opacity:1;fill-rule:nonzero;stroke:none"
       id="path1456" /><path
       d="m 250.187,248.251 -12.395,12.3945 -12.395,-12.3945 12.395,-12.3946 z"
       style="fill:#ffffff;fill-opacity:1;fill-rule:nonzero;stroke:none"
       id="path1458" /><path
       d="M 248.4512,248.251 237.792,258.9102 227.1328,248.251 237.792,237.5918 Z"
       style="fill:#000000;fill-opacity:1;fill-rule:nonzero;stroke:none"
       id="path1460" /><path
       d="M 306.5566,317.0146 V 334.543 H 289.0278 V 317.0146 Z"
       style="fill:#ffffff;fill-opacity:1;fill-rule:nonzero;stroke:none"
       id="path1494" /><path
       d="m 305.3291,318.2412 v 15.0752 h -15.0747 v -15.0752 z"
       style="fill:#000000;fill-opacity:1;fill-rule:nonzero;stroke:none"
       id="path1496" /><path
       d="m 309.1758,166.6113 v 17.5293 H 291.646 v -17.5293 z"
       style="fill:#ffffff;fill-opacity:1;fill-rule:nonzero;stroke:none"
       id="path1526" /><path
       d="m 307.9473,167.8389 v 15.0742 h -15.0738 v -15.0742 z"
       style="fill:#000000;fill-opacity:1;fill-rule:nonzero;stroke:none"
       id="path1528" /><path
       d="M 337.8125,175.126 325.418,187.5205 313.0215,175.126 325.418,162.7314 Z"
       style="fill:#ffffff;fill-opacity:1;fill-rule:nonzero;stroke:none"
       id="path1530" /><path
       d="M 336.0762,175.126 325.418,185.7852 314.7578,175.126 325.418,164.4668 Z"
       style="fill:#000000;fill-opacity:1;fill-rule:nonzero;stroke:none"
       id="path1532" /><path
       d="m 209.3687,291.209 h 4.9165 l -2.5,-2.916 h 3.3335 l -3.5,-3.75 h 3.1665 l -6.5,-7.084 h -2.0831 l 4.0831,5.334 h -2.9165 l 2.4375,3.3955 h -3.4166 z"
       style="fill:#ffffff;fill-opacity:1;fill-rule:nonzero;stroke:none"
       id="path1590" /><path
       d="m 234.8394,290.1465 h 4.3945 l -2.2344,-2.6074 h 2.98 l -3.1294,-3.3516 h 2.8306 l -5.8096,-6.332 h -1.8623 l 3.6499,4.7675 h -2.6074 l 2.1787,3.0352 h -3.0537 z"
       style="fill:#ffffff;fill-opacity:1;fill-rule:nonzero;stroke:none"
       id="path1592" /><path
       d="m 237.8062,255.793 -0.75,-5.4375 -3.0625,2.0625 c 0,0 -0.9375,0.375 -0.4375,-0.5 0.5,-0.875 2.125,-2.75 2.125,-2.75 l -4.8125,-1.125 4.75,-1.0625 -1.6875,-2 c 0,0 -0.375,-1.0625 0.625,-0.625 1,0.4375 2.5,1.5625 2.5,1.5625 l 0.875,-5.375 1,5.25 2.5625,-1.4375 c 0,0 1.1709,-0.4483 0.5,0.625 -0.625,1 -2,2.3125 -2,2.3125 l 5.0625,0.6875 -5.25,1.25 2.125,2.5625 c 0,0 0.4375,1.25 -0.625,0.5625 -1.0625,-0.6875 -2.5625,-1.9375 -2.5625,-1.9375 z"
       style="fill:#ffffff;fill-opacity:1;fill-rule:nonzero;stroke:none"
       id="path1594" /><path
       d="m 212.6353,255.2334 -0.67,-4.8604 -2.7373,1.8438 c -5e-4,0 -0.8379,0.335 -0.3916,-0.4473 0.4473,-0.7822 1.8994,-2.458 1.8994,-2.458 l -4.3017,-1.0058 4.2461,-0.9493 -1.5088,-1.788 c 0,0 -0.335,-0.9493 0.5591,-0.5586 0.894,0.3916 2.2348,1.3965 2.2348,1.3965 l 0.7818,-4.8038 0.894,4.6924 2.2901,-1.2851 c 0,0 1.0468,-0.4004 0.4477,0.5586 -0.5591,0.8945 -1.7886,2.0673 -1.7886,2.0673 l 4.5259,0.6143 -4.6929,1.1172 1.899,2.291 c 0,0 0.3911,1.1172 -0.5586,0.5029 -0.9497,-0.6152 -2.2906,-1.7324 -2.2906,-1.7324 z"
       style="fill:#ffffff;fill-opacity:1;fill-rule:nonzero;stroke:none"
       id="path1596" /><path
       d="m 297.8438,319.4121 c 3.4667,0 6.2773,2.8106 6.2773,6.2774 0,3.4658 -2.8106,6.2763 -6.2773,6.2763 -3.4664,0 -6.2769,-2.8105 -6.2769,-6.2763 0,-3.4668 2.8105,-6.2774 6.2769,-6.2774 z"
       style="fill:#ffffff;fill-opacity:1;fill-rule:nonzero;stroke:none"
       id="path1624" /><path
       d="m 296.6909,332.4111 c 0,0 0.5064,-6.6377 -0.0561,-9.8437 0,0 4.3867,2.1377 3.5996,9.7871 z"
       style="fill:#000000;fill-opacity:1;fill-rule:nonzero;stroke:none"
       id="path1626" /><path
       d="m 334.7832,175.1992 -9.3769,9.376 -9.375,-9.376 9.375,-9.376 z"
       style="fill:#000000;fill-opacity:1;fill-rule:nonzero;stroke:#ffffff;stroke-width:1;stroke-linecap:butt;stroke-linejoin:miter;stroke-miterlimit:4;stroke-dasharray:none;stroke-opacity:1"
       id="path1688" /><path
       d="m 325.4004,169.3467 c 3.1973,0 5.7891,2.5928 5.7891,5.79 0,3.1973 -2.5918,5.7891 -5.7891,5.7891 -3.1973,0 -5.7891,-2.5918 -5.7891,-5.7891 0,-3.1972 2.5918,-5.79 5.7891,-5.79 z"
       style="fill:#ffffff;fill-opacity:1;fill-rule:nonzero;stroke:none"
       id="path1690" /><path
       d="m 320.1816,178.4805 7.9375,-8.375 -2.875,11.1875 -4.375,-9.8125 9.25,7.1875"
       style="fill:none;stroke:#000000;stroke-width:1;stroke-linecap:butt;stroke-linejoin:bevel;stroke-miterlimit:4;stroke-dasharray:none;stroke-opacity:1"
       id="path1692" /><path
       d="M 307.043,181.9541 H 293.7837 V 168.6943 H 307.043 Z"
       style="fill:#000000;fill-opacity:1;fill-rule:nonzero;stroke:#ffffff;stroke-width:1;stroke-linecap:butt;stroke-linejoin:miter;stroke-miterlimit:4;stroke-dasharray:none;stroke-opacity:1"
       id="path1694" /><path
       d="m 300.4004,169.4717 c 3.1973,0 5.7891,2.5928 5.7891,5.79 0,3.1973 -2.5918,5.7891 -5.7891,5.7891 -3.1973,0 -5.7896,-2.5918 -5.7896,-5.7891 0,-3.1972 2.5923,-5.79 5.7896,-5.79 z"
       style="fill:#ffffff;fill-opacity:1;fill-rule:nonzero;stroke:none"
       id="path1696" /><path
       d="m 295.1812,178.6055 7.9379,-8.375 -2.875,10.875 -4.3754,-9.5 9.2504,7.1875"
       style="fill:none;stroke:#000000;stroke-width:1;stroke-linecap:butt;stroke-linejoin:bevel;stroke-miterlimit:4;stroke-dasharray:none;stroke-opacity:1"
       id="path1698" /></g></svg>
