<?xml version="1.0" encoding="UTF-8" standalone="no"?>
<svg
   xmlns:dc="http://purl.org/dc/elements/1.1/"
   xmlns:cc="http://creativecommons.org/ns#"
   xmlns:rdf="http://www.w3.org/1999/02/22-rdf-syntax-ns#"
   xmlns:svg="http://www.w3.org/2000/svg"
   xmlns="http://www.w3.org/2000/svg"
   xmlns:sodipodi="http://sodipodi.sourceforge.net/DTD/sodipodi-0.dtd"
   xmlns:inkscape="http://www.inkscape.org/namespaces/inkscape"
   sodipodi:docname="dom-sup.svg"
   inkscape:version="1.0 (4035a4fb49, 2020-05-01)"
   id="svg4747"
   version="1.1"
   viewBox="0 0 8.7453613 8.7450438"
   height="8.7450438mm"
   width="8.7453613mm">
  <defs
     id="defs4741" />
  <sodipodi:namedview
     inkscape:window-maximized="1"
     inkscape:window-y="-8"
     inkscape:window-x="56"
     inkscape:window-height="1417"
     inkscape:window-width="2496"
     fit-margin-bottom="0"
     fit-margin-right="0"
     fit-margin-left="0"
     fit-margin-top="0"
     showgrid="false"
     inkscape:document-rotation="0"
     inkscape:current-layer="layer1"
     inkscape:document-units="mm"
     inkscape:cy="525.0975"
     inkscape:cx="105.0981"
     inkscape:zoom="0.35"
     inkscape:pageshadow="2"
     inkscape:pageopacity="0.0"
     borderopacity="1.0"
     bordercolor="#666666"
     pagecolor="#ffffff"
     id="base" />
  <metadata
     id="metadata4744">
    <rdf:RDF>
      <cc:Work
         rdf:about="">
        <dc:format>image/svg+xml</dc:format>
        <dc:type
           rdf:resource="http://purl.org/dc/dcmitype/StillImage" />
        <dc:title></dc:title>
      </cc:Work>
    </rdf:RDF>
  </metadata>
  <g
     transform="translate(-78.026129,-9.2346211)"
     id="layer1"
     inkscape:groupmode="layer"
     inkscape:label="Calque 1">
    <path
       d="m 86.77149,13.607125 -4.372681,-4.3725039 -4.37268,4.3725039 4.37268,4.37254 z"
       style="fill:#ffffff;fill-opacity:1;fill-rule:nonzero;stroke:none;stroke-width:0.352777"
       id="path1442" />
    <path
       d="m 86.159138,13.607125 -3.760329,-3.7603286 -3.760328,3.7603286 3.760328,3.760329 z"
       style="fill:#000000;fill-opacity:1;fill-rule:nonzero;stroke:none;stroke-width:0.352777"
       id="path1444" />
    <path
       d="m 83.153472,12.967716 c 0.23943,0 0.433563,-0.19431 0.433563,-0.433741 v 0 c 0,-0.23943 -0.194133,-0.433387 -0.433563,-0.433387 h -1.557726 c -0.23943,0 -0.433564,0.193957 -0.433564,0.433387 v 0 c 0,0.239431 0.194134,0.433741 0.433564,0.433741 z"
       style="fill:#ffffff;fill-opacity:1;fill-rule:nonzero;stroke:none;stroke-width:0.352777"
       id="path1574" />
    <path
       d="m 83.153472,15.143296 c 0.23943,0 0.433563,-0.19431 0.433563,-0.43374 v 0 c 0,-0.23943 -0.194133,-0.43374 -0.433563,-0.43374 h -1.557726 c -0.23943,0 -0.433564,0.19431 -0.433564,0.43374 v 0 c 0,0.23943 0.194134,0.43374 0.433564,0.43374 z"
       style="fill:#ffffff;fill-opacity:1;fill-rule:nonzero;stroke:none;stroke-width:0.352777"
       id="path1576" />
    <path
       d="m 84.623461,14.026049 c 0.239466,0 0.433564,-0.19431 0.433564,-0.43374 v 0 c 0,-0.239431 -0.194098,-0.433388 -0.433564,-0.433388 h -1.55769 c -0.23943,0 -0.433564,0.193957 -0.433564,0.433388 v 0 c 0,0.23943 0.194134,0.43374 0.433564,0.43374 z"
       style="fill:#ffffff;fill-opacity:1;fill-rule:nonzero;stroke:none;stroke-width:0.352777"
       id="path1578" />
    <path
       d="m 81.683588,14.026049 c 0.239465,0 0.433599,-0.19431 0.433599,-0.43374 v 0 c 0,-0.239431 -0.194134,-0.433388 -0.433599,-0.433388 h -1.55769 c -0.239431,0 -0.433564,0.193957 -0.433564,0.433388 v 0 c 0,0.23943 0.194133,0.43374 0.433564,0.43374 z"
       style="fill:#ffffff;fill-opacity:1;fill-rule:nonzero;stroke:none;stroke-width:0.352777"
       id="path1580" />
  </g>
</svg>
