<?xml version="1.0" encoding="UTF-8" standalone="no"?>
<svg
   xmlns:dc="http://purl.org/dc/elements/1.1/"
   xmlns:cc="http://creativecommons.org/ns#"
   xmlns:rdf="http://www.w3.org/1999/02/22-rdf-syntax-ns#"
   xmlns:svg="http://www.w3.org/2000/svg"
   xmlns="http://www.w3.org/2000/svg"
   xmlns:sodipodi="http://sodipodi.sourceforge.net/DTD/sodipodi-0.dtd"
   xmlns:inkscape="http://www.inkscape.org/namespaces/inkscape"
   sodipodi:docname="pot-sup.svg"
   inkscape:version="1.0 (4035a4fb49, 2020-05-01)"
   id="svg4757"
   version="1.1"
   viewBox="0 0 8.7450104 8.7450399"
   height="8.7450399mm"
   width="8.7450104mm">
  <defs
     id="defs4751" />
  <sodipodi:namedview
     inkscape:window-maximized="1"
     inkscape:window-y="-8"
     inkscape:window-x="56"
     inkscape:window-height="1417"
     inkscape:window-width="2496"
     fit-margin-bottom="0"
     fit-margin-right="0"
     fit-margin-left="0"
     fit-margin-top="0"
     showgrid="false"
     inkscape:document-rotation="0"
     inkscape:current-layer="layer1"
     inkscape:document-units="mm"
     inkscape:cy="-177.75966"
     inkscape:cx="-926.33112"
     inkscape:zoom="0.35"
     inkscape:pageshadow="2"
     inkscape:pageopacity="0.0"
     borderopacity="1.0"
     bordercolor="#666666"
     pagecolor="#ffffff"
     id="base" />
  <metadata
     id="metadata4754">
    <rdf:RDF>
      <cc:Work
         rdf:about="">
        <dc:format>image/svg+xml</dc:format>
        <dc:type
           rdf:resource="http://purl.org/dc/dcmitype/StillImage" />
        <dc:title></dc:title>
      </cc:Work>
    </rdf:RDF>
  </metadata>
  <g
     transform="translate(-350.92511,-195.19891)"
     id="layer1"
     inkscape:groupmode="layer"
     inkscape:label="Calque 1">
    <path
       d="m 359.67012,199.57141 -4.3725,-4.3725 -4.37251,4.3725 4.37251,4.37254 z"
       style="fill:#ffffff;fill-opacity:1;fill-rule:nonzero;stroke:none;stroke-width:0.352777"
       id="path172" />
    <path
       d="m 359.0583,199.57141 -3.76068,-3.76033 -3.75998,3.76033 3.75998,3.76033 z"
       style="fill:#000000;fill-opacity:1;fill-rule:nonzero;stroke:none;stroke-width:0.352777"
       id="path174" />
    <path
       d="m 353.45104,198.25573 c 0,0 0,0.66145 0.0662,1.36701 0.0661,0.70556 0.15434,1.03628 0.15434,1.03628 0,0 0.28663,0.30869 0.50711,-0.0441 l 0.0221,-1.30087 0.13229,-0.0221 0.11025,1.21268 c 0,0 0.11024,0.28663 0.33072,0.26458 0.22049,-0.0221 0.35278,-0.0882 0.35278,-0.19844 0,-0.11024 -0.0221,-1.38906 -0.0221,-1.38906 l 0.15434,-0.0221 0.0661,1.38906 c 0,0 0.0882,0.17639 0.30868,0.17639 0.22049,0 0.26458,-0.022 0.33073,-0.22048 0.0661,-0.19844 0.0441,-1.32292 0.0441,-1.32292 l 0.15434,-0.0661 0.0441,1.38907 c 0,0 0,0.15434 0.26458,0.17638 0.26458,0.0221 0.39687,0.0221 0.46302,-0.19843 0.0661,-0.22049 0.0441,-2.29306 0.0441,-2.29306 0,0 -0.15434,-0.57326 -0.74966,-0.17639 0,0 -0.46302,-0.63941 -0.88194,-0.0882 l -0.11024,0.0882 c 0,0 -0.52917,-0.50712 -0.92605,0.0882 0,0 -0.63941,-0.37483 -0.85989,0.15434 z"
       style="fill:#ffffff;fill-opacity:1;fill-rule:nonzero;stroke:none;stroke-width:0.352777"
       id="path334" />
    <path
       d="m 355.34722,200.94566 c 0,0 -0.63941,0.46302 0.022,0.66145 0,0 0.8158,0.15435 1.25677,0.0441 0,0 0.24253,-0.44097 0,-0.70555 0,0 -0.8158,-0.0661 -1.27882,0 z"
       style="fill:#ffffff;fill-opacity:1;fill-rule:nonzero;stroke:none;stroke-width:0.352777"
       id="path336" />
  </g>
</svg>
