<?xml version="1.0" encoding="UTF-8" standalone="no"?>
<svg
   xmlns:dc="http://purl.org/dc/elements/1.1/"
   xmlns:cc="http://creativecommons.org/ns#"
   xmlns:rdf="http://www.w3.org/1999/02/22-rdf-syntax-ns#"
   xmlns:svg="http://www.w3.org/2000/svg"
   xmlns="http://www.w3.org/2000/svg"
   xmlns:sodipodi="http://sodipodi.sourceforge.net/DTD/sodipodi-0.dtd"
   xmlns:inkscape="http://www.inkscape.org/namespaces/inkscape"
   sodipodi:docname="ani-sup.svg"
   inkscape:version="1.0 (4035a4fb49, 2020-05-01)"
   id="svg2918"
   version="1.1"
   viewBox="0 0 8.7453604 8.7453604"
   height="8.7453604mm"
   width="8.7453604mm">
  <defs
     id="defs2912" />
  <sodipodi:namedview
     inkscape:window-maximized="1"
     inkscape:window-y="-8"
     inkscape:window-x="56"
     inkscape:window-height="1417"
     inkscape:window-width="2496"
     fit-margin-bottom="0"
     fit-margin-right="0"
     fit-margin-left="0"
     fit-margin-top="0"
     showgrid="false"
     inkscape:document-rotation="0"
     inkscape:current-layer="layer1"
     inkscape:document-units="mm"
     inkscape:cy="1076.5267"
     inkscape:cx="-49.187628"
     inkscape:zoom="0.35"
     inkscape:pageshadow="2"
     inkscape:pageopacity="0.0"
     borderopacity="1.0"
     bordercolor="#666666"
     pagecolor="#ffffff"
     id="base" />
  <metadata
     id="metadata2915">
    <rdf:RDF>
      <cc:Work
         rdf:about="">
        <dc:format>image/svg+xml</dc:format>
        <dc:type
           rdf:resource="http://purl.org/dc/dcmitype/StillImage" />
        <dc:title></dc:title>
      </cc:Work>
    </rdf:RDF>
  </metadata>
  <g
     transform="translate(-118.84756,136.66435)"
     id="layer1"
     inkscape:groupmode="layer"
     inkscape:label="Calque 1">
    <path
       d="m 127.59292,-132.29184 -4.37286,-4.37251 -4.3725,4.37251 4.3725,4.37285 z"
       style="fill:#ffffff;fill-opacity:1;fill-rule:nonzero;stroke:none;stroke-width:0.352777"
       id="path1390" />
    <path
       d="m 126.98057,-132.29184 -3.76051,-3.7603 -3.76033,3.7603 3.76033,3.76068 z"
       style="fill:#000000;fill-opacity:1;fill-rule:nonzero;stroke:none;stroke-width:0.352777"
       id="path1392" />
    <path
       d="m 121.86547,-131.46846 c 0,0 0.26458,-0.49989 0.49985,-0.58808 0.23512,-0.0882 0.58808,-0.38206 0.70541,-0.44097 0.11765,-0.0589 0.26458,-0.0589 0.44097,0.0589 0.17653,0.11748 0.85263,0.47025 0.88195,0.79375 0.0295,0.32315 0.0295,0.82303 -0.23513,0.94051 -0.26458,0.11782 -0.49974,0.14711 -0.55862,-0.11748 -0.0587,-0.26458 0.0294,-0.58808 0.0294,-0.58808 0,0 -0.11765,-0.23495 -0.26458,-0.29386 -0.14679,-0.0589 -0.17639,-0.0293 -0.17639,-0.0293 0,0 0.0882,0.58773 -0.20584,0.79375 -0.35264,0.29386 -0.6761,0.20567 -0.94069,-0.0296 -0.26458,-0.23495 -0.17638,-0.49953 -0.17638,-0.49953 z"
       style="fill:#ffffff;fill-opacity:1;fill-rule:nonzero;stroke:none;stroke-width:0.352777"
       id="path1404" />
    <path
       d="m 122.6299,-134.17321 c 0,0 -0.44111,0.76447 -0.41166,1.26401 0.0294,0.49988 0.3822,0.44097 0.3822,0.44097 0,0 0.35296,-0.14676 0.41155,-0.44097 0.0587,-0.29387 -0.14696,-0.91123 -0.14696,-0.91123 z"
       style="fill:#ffffff;fill-opacity:1;fill-rule:nonzero;stroke:none;stroke-width:0.352777"
       id="path1406" />
    <path
       d="m 123.83517,-134.23212 c 0,0 -0.41152,0.41169 -0.41152,0.73519 0,0.32314 0.0589,0.76411 0.38209,0.91122 0.32332,0.14711 0.41166,-0.14711 0.41166,-0.32349 0,-0.17639 0,-0.64665 -0.11765,-0.85232 -0.11762,-0.20602 -0.26458,-0.4706 -0.26458,-0.4706 z"
       style="fill:#ffffff;fill-opacity:1;fill-rule:nonzero;stroke:none;stroke-width:0.352777"
       id="path1408" />
    <path
       d="m 125.01115,-133.26198 c 0,0 -0.41166,0.29421 -0.52917,0.58808 -0.11765,0.29386 -0.0589,0.61736 0.0589,0.73483 0.11733,0.11783 0.3526,0.38242 0.47025,0.23531 0.11751,-0.14711 0.0589,-0.47026 0.0293,-0.70556 -0.0293,-0.2353 -0.0293,-0.85266 -0.0293,-0.85266 z"
       style="fill:#ffffff;fill-opacity:1;fill-rule:nonzero;stroke:none;stroke-width:0.352777"
       id="path1410" />
    <path
       d="m 121.54211,-133.32054 c 0,0 0.47029,0.29386 0.49974,0.76411 0.0294,0.47061 -0.14679,0.76447 -0.38223,0.70556 -0.23513,-0.0586 -0.23513,-0.32315 -0.20571,-0.61736 0.0293,-0.29387 0.0882,-0.85231 0.0882,-0.85231 z"
       style="fill:#ffffff;fill-opacity:1;fill-rule:nonzero;stroke:none;stroke-width:0.352777"
       id="path1412" />
  </g>
</svg>
