<?xml version="1.0" encoding="UTF-8" standalone="no"?>
<svg
   xmlns:dc="http://purl.org/dc/elements/1.1/"
   xmlns:cc="http://creativecommons.org/ns#"
   xmlns:rdf="http://www.w3.org/1999/02/22-rdf-syntax-ns#"
   xmlns:svg="http://www.w3.org/2000/svg"
   xmlns="http://www.w3.org/2000/svg"
   xmlns:sodipodi="http://sodipodi.sourceforge.net/DTD/sodipodi-0.dtd"
   xmlns:inkscape="http://www.inkscape.org/namespaces/inkscape"
   sodipodi:docname="aus-sup.svg"
   inkscape:version="1.0 (4035a4fb49, 2020-05-01)"
   id="svg3519"
   version="1.1"
   viewBox="0 0 8.7451849 8.7453613"
   height="8.7453613mm"
   width="8.7451849mm">
  <defs
     id="defs3513" />
  <sodipodi:namedview
     inkscape:window-maximized="1"
     inkscape:window-y="-8"
     inkscape:window-x="56"
     inkscape:window-height="1417"
     inkscape:window-width="2496"
     fit-margin-bottom="0"
     fit-margin-right="0"
     fit-margin-left="0"
     fit-margin-top="0"
     showgrid="false"
     inkscape:document-rotation="0"
     inkscape:current-layer="layer1"
     inkscape:document-units="mm"
     inkscape:cy="733.66952"
     inkscape:cx="67.954905"
     inkscape:zoom="0.35"
     inkscape:pageshadow="2"
     inkscape:pageopacity="0.0"
     borderopacity="1.0"
     bordercolor="#666666"
     pagecolor="#ffffff"
     id="base" />
  <metadata
     id="metadata3516">
    <rdf:RDF>
      <cc:Work
         rdf:about="">
        <dc:format>image/svg+xml</dc:format>
        <dc:type
           rdf:resource="http://purl.org/dc/dcmitype/StillImage" />
        <dc:title></dc:title>
      </cc:Work>
    </rdf:RDF>
  </metadata>
  <g
     transform="translate(-87.853598,45.950061)"
     id="layer1"
     inkscape:groupmode="layer"
     inkscape:label="Calque 1">
    <path
       d="m 96.598783,-41.577557 -4.372681,-4.372504 -4.372504,4.372504 4.372504,4.372857 z"
       style="fill:#ffffff;fill-opacity:1;fill-rule:nonzero;stroke:none;stroke-width:0.352777"
       id="path1418" />
    <path
       d="m 95.986608,-41.577557 -3.760506,-3.760329 -3.760329,3.760329 3.760329,3.760681 z"
       style="fill:#000000;fill-opacity:1;fill-rule:nonzero;stroke:none;stroke-width:0.352777"
       id="path1420" />
    <path
       d="m 89.475177,-41.577557 c 0,0 1.264037,-1.55822 2.292914,-1.646414 1.029017,-0.08819 1.734749,0.147108 2.322512,0.764469 0.587905,0.617361 0.764293,0.911225 0.764293,0.911225 0,0 -0.91126,1.381831 -1.822626,1.5875 -0.91126,0.206022 -1.646096,0.117828 -2.204861,-0.323144 -0.558482,-0.440973 -1.352232,-1.293636 -1.352232,-1.293636 z"
       style="fill:#ffffff;fill-opacity:1;fill-rule:nonzero;stroke:none;stroke-width:0.352777"
       id="path1422" />
    <path
       d="m 92.356136,-40.508182 c 0.77724,0 1.407337,-0.630132 1.407337,-1.407337 0,-0.777204 -0.630097,-1.407653 -1.407337,-1.407653 -0.777028,0 -1.407301,0.630449 -1.407301,1.407653 0,0.777205 0.630273,1.407337 1.407301,1.407337 z"
       style="fill:#000000;fill-opacity:1;fill-rule:nonzero;stroke:none;stroke-width:0.352777"
       id="path1424" />
    <path
       d="m 92.356136,-40.82928 c 0.599969,0 1.086273,-0.486446 1.086273,-1.086239 0,-0.600145 -0.486304,-1.08659 -1.086273,-1.08659 -0.599934,0 -1.086379,0.486445 -1.086379,1.08659 0,0.599793 0.486445,1.086239 1.086379,1.086239 z"
       style="fill:#ffffff;fill-opacity:1;fill-rule:nonzero;stroke:none;stroke-width:0.352777"
       id="path1426" />
    <path
       d="m 91.709353,-41.753946 c 0,0 0.881945,0.264583 0.852488,-0.823031 0,0 0.558623,0.08819 0.470429,0.940506 0,0 -0.29404,0.676275 -0.852346,0.411691 -0.558765,-0.264583 -0.470571,-0.529166 -0.470571,-0.529166 z"
       style="fill:#000000;fill-opacity:1;fill-rule:nonzero;stroke:none;stroke-width:0.352777"
       id="path1428" />
  </g>
</svg>
