<?xml version="1.0" encoding="UTF-8" standalone="no"?>
<svg
   xmlns:dc="http://purl.org/dc/elements/1.1/"
   xmlns:cc="http://creativecommons.org/ns#"
   xmlns:rdf="http://www.w3.org/1999/02/22-rdf-syntax-ns#"
   xmlns:svg="http://www.w3.org/2000/svg"
   xmlns="http://www.w3.org/2000/svg"
   xmlns:sodipodi="http://sodipodi.sourceforge.net/DTD/sodipodi-0.dtd"
   xmlns:inkscape="http://www.inkscape.org/namespaces/inkscape"
   sodipodi:docname="dom.svg"
   inkscape:version="1.0 (4035a4fb49, 2020-05-01)"
   id="svg5346"
   version="1.1"
   viewBox="0 0 6.1839471 6.183948"
   height="6.183948mm"
   width="6.1839471mm">
  <defs
     id="defs5340" />
  <sodipodi:namedview
     inkscape:window-maximized="1"
     inkscape:window-y="-8"
     inkscape:window-x="56"
     inkscape:window-height="1417"
     inkscape:window-width="2496"
     fit-margin-bottom="0"
     fit-margin-right="0"
     fit-margin-left="0"
     fit-margin-top="0"
     showgrid="false"
     inkscape:document-rotation="0"
     inkscape:current-layer="layer1"
     inkscape:document-units="mm"
     inkscape:cy="308.82906"
     inkscape:cx="377.40049"
     inkscape:zoom="0.35"
     inkscape:pageshadow="2"
     inkscape:pageopacity="0.0"
     borderopacity="1.0"
     bordercolor="#666666"
     pagecolor="#ffffff"
     id="base" />
  <metadata
     id="metadata5343">
    <rdf:RDF>
      <cc:Work
         rdf:about="">
        <dc:format>image/svg+xml</dc:format>
        <dc:type
           rdf:resource="http://purl.org/dc/dcmitype/StillImage" />
        <dc:title></dc:title>
      </cc:Work>
    </rdf:RDF>
  </metadata>
  <g
     transform="translate(-5.979455,-66.455645)"
     id="layer1"
     inkscape:groupmode="layer"
     inkscape:label="Calque 1">
    <path
       d="M 12.163402,72.639593 V 66.455645 H 5.979455 v 6.183948 z"
       style="fill:#ffffff;fill-opacity:1;fill-rule:nonzero;stroke:none;stroke-width:0.352777"
       id="path1438" />
    <path
       d="M 11.730368,72.206523 V 66.88868 H 6.4124897 v 5.317843 z"
       style="fill:#000000;fill-opacity:1;fill-rule:nonzero;stroke:none;stroke-width:0.352777"
       id="path1440" />
    <path
       d="m 10.07016,69.550036 c 0.169157,0.169156 0.4439,0.169156 0.613057,0 v 0 c 0.169334,-0.16951 0.169334,-0.444077 0,-0.613234 L 9.58181,67.835042 c -0.1693333,-0.169157 -0.4439005,-0.169157 -0.6133748,0 v 0 c -0.1693333,0.16951 -0.1693333,0.443724 0,0.613233 z"
       style="fill:#ffffff;fill-opacity:1;fill-rule:nonzero;stroke:none;stroke-width:0.352777"
       id="path1582" />
    <path
       d="m 8.5317669,71.088252 c 0.1694743,0.169158 0.4439001,0.169158 0.6133748,0 v 0 c 0.1693333,-0.169509 0.1693333,-0.444076 0,-0.613233 L 8.0434166,69.373294 c -0.1693333,-0.169157 -0.4439003,-0.169157 -0.6132336,0 v 0 c -0.1691569,0.169157 -0.1691569,0.444077 0,0.613233 z"
       style="fill:#ffffff;fill-opacity:1;fill-rule:nonzero;stroke:none;stroke-width:0.352777"
       id="path1584" />
    <path
       d="m 10.361272,71.337666 c 0.169157,0.169157 0.443724,0.169157 0.613057,0 v 0 c 0.169158,-0.169474 0.169158,-0.444041 0,-0.613198 L 9.8727458,69.623061 c -0.1691571,-0.16951 -0.4437239,-0.16951 -0.6132338,0 v 0 c -0.1692978,0.169156 -0.1692978,0.443724 0,0.61288 z"
       style="fill:#ffffff;fill-opacity:1;fill-rule:nonzero;stroke:none;stroke-width:0.352777"
       id="path1586" />
    <path
       d="m 8.2824941,69.258571 c 0.1693333,0.169509 0.4437238,0.169509 0.6130571,0 v 0 c 0.1693333,-0.168805 0.1693333,-0.443724 0,-0.612881 L 7.7940027,67.544282 c -0.1693333,-0.169509 -0.4439002,-0.169509 -0.6132336,0 v 0 c -0.1693333,0.169157 -0.1693333,0.443724 0,0.612881 z"
       style="fill:#ffffff;fill-opacity:1;fill-rule:nonzero;stroke:none;stroke-width:0.352777"
       id="path1588" />
  </g>
</svg>
