<?xml version="1.0" encoding="UTF-8" standalone="no"?>
<svg
   xmlns:dc="http://purl.org/dc/elements/1.1/"
   xmlns:cc="http://creativecommons.org/ns#"
   xmlns:rdf="http://www.w3.org/1999/02/22-rdf-syntax-ns#"
   xmlns:svg="http://www.w3.org/2000/svg"
   xmlns="http://www.w3.org/2000/svg"
   xmlns:sodipodi="http://sodipodi.sourceforge.net/DTD/sodipodi-0.dtd"
   xmlns:inkscape="http://www.inkscape.org/namespaces/inkscape"
   sodipodi:docname="pot.svg"
   inkscape:version="1.0 (4035a4fb49, 2020-05-01)"
   id="svg5350"
   version="1.1"
   viewBox="0 0 6.1839399 6.1839499"
   height="6.1839499mm"
   width="6.1839399mm">
  <defs
     id="defs5344" />
  <sodipodi:namedview
     inkscape:window-maximized="1"
     inkscape:window-y="-8"
     inkscape:window-x="56"
     inkscape:window-height="1417"
     inkscape:window-width="2496"
     fit-margin-bottom="0"
     fit-margin-right="0"
     fit-margin-left="0"
     fit-margin-top="0"
     showgrid="false"
     inkscape:document-rotation="0"
     inkscape:current-layer="layer1"
     inkscape:document-units="mm"
     inkscape:cy="-31.170948"
     inkscape:cx="-825.45667"
     inkscape:zoom="0.35"
     inkscape:pageshadow="2"
     inkscape:pageopacity="0.0"
     borderopacity="1.0"
     bordercolor="#666666"
     pagecolor="#ffffff"
     id="base" />
  <metadata
     id="metadata5347">
    <rdf:RDF>
      <cc:Work
         rdf:about="">
        <dc:format>image/svg+xml</dc:format>
        <dc:type
           rdf:resource="http://purl.org/dc/dcmitype/StillImage" />
        <dc:title></dc:title>
      </cc:Work>
    </rdf:RDF>
  </metadata>
  <g
     transform="translate(-324.23541,-156.41398)"
     id="layer1"
     inkscape:groupmode="layer"
     inkscape:label="Calque 1">
    <path
       d="m 330.41935,162.59793 v -6.18395 h -6.18394 v 6.18395 z"
       style="fill:#ffffff;fill-opacity:1;fill-rule:nonzero;stroke:none;stroke-width:0.352777"
       id="path164" />
    <path
       d="m 329.98667,162.16486 v -5.31785 h -5.31788 v 5.31785 z"
       style="fill:#000000;fill-opacity:1;fill-rule:nonzero;stroke:none;stroke-width:0.352777"
       id="path166" />
    <path
       d="m 325.43912,158.10206 c 0,0 0,0.66145 0.0661,1.36701 0.0661,0.70555 0.15434,1.03628 0.15434,1.03628 0,0 0.28663,0.30868 0.50711,-0.0441 l 0.022,-1.30087 0.13229,-0.0221 0.11025,1.21267 c 0,0 0.11024,0.28664 0.33073,0.26459 0.22048,-0.0221 0.35277,-0.0882 0.35277,-0.19844 0,-0.11024 -0.022,-1.38906 -0.022,-1.38906 l 0.15434,-0.0221 0.0661,1.38906 c 0,0 0.0882,0.17639 0.30868,0.17639 0.22049,0 0.26459,-0.022 0.33073,-0.22049 0.0661,-0.19843 0.0441,-1.32291 0.0441,-1.32291 l 0.15434,-0.0661 0.0441,1.38906 c 0,0 0,0.15434 0.26458,0.17639 0.26458,0.0221 0.39688,0.0221 0.46302,-0.19843 0.0661,-0.22049 0.0441,-2.29306 0.0441,-2.29306 0,0 -0.15434,-0.57326 -0.74965,-0.17639 0,0 -0.46303,-0.63941 -0.88195,-0.0882 l -0.11024,0.0882 c 0,0 -0.52917,-0.50712 -0.92604,0.0882 0,0 -0.63941,-0.37482 -0.8599,0.15435 z"
       style="fill:#ffffff;fill-opacity:1;fill-rule:nonzero;stroke:none;stroke-width:0.352777"
       id="path330" />
    <path
       d="m 327.3353,160.79199 c 0,0 -0.63941,0.46302 0.022,0.66145 0,0 0.8158,0.15434 1.25677,0.0441 0,0 0.24253,-0.44097 0,-0.70555 0,0 -0.8158,-0.0661 -1.27882,0 z"
       style="fill:#ffffff;fill-opacity:1;fill-rule:nonzero;stroke:none;stroke-width:0.352777"
       id="path332" />
  </g>
</svg>
