<?xml version="1.0" encoding="UTF-8" standalone="no"?>
<svg
   xmlns:dc="http://purl.org/dc/elements/1.1/"
   xmlns:cc="http://creativecommons.org/ns#"
   xmlns:rdf="http://www.w3.org/1999/02/22-rdf-syntax-ns#"
   xmlns:svg="http://www.w3.org/2000/svg"
   xmlns="http://www.w3.org/2000/svg"
   xmlns:sodipodi="http://sodipodi.sourceforge.net/DTD/sodipodi-0.dtd"
   xmlns:inkscape="http://www.inkscape.org/namespaces/inkscape"
   sodipodi:docname="pre-sup.svg"
   inkscape:version="1.0 (4035a4fb49, 2020-05-01)"
   id="svg8308"
   version="1.1"
   viewBox="0 0 8.7453604 8.7450504"
   height="8.7450504mm"
   width="8.7453604mm">
  <defs
     id="defs8302" />
  <sodipodi:namedview
     inkscape:window-maximized="1"
     inkscape:window-y="-8"
     inkscape:window-x="56"
     inkscape:window-height="1417"
     inkscape:window-width="2496"
     fit-margin-bottom="0"
     fit-margin-right="0"
     fit-margin-left="0"
     fit-margin-top="0"
     showgrid="false"
     inkscape:document-rotation="0"
     inkscape:current-layer="layer1"
     inkscape:document-units="mm"
     inkscape:cy="-112.04535"
     inkscape:cx="-166.33049"
     inkscape:zoom="0.35"
     inkscape:pageshadow="2"
     inkscape:pageopacity="0.0"
     borderopacity="1.0"
     bordercolor="#666666"
     pagecolor="#ffffff"
     id="base" />
  <metadata
     id="metadata8305">
    <rdf:RDF>
      <cc:Work
         rdf:about="">
        <dc:format>image/svg+xml</dc:format>
        <dc:type
           rdf:resource="http://purl.org/dc/dcmitype/StillImage" />
        <dc:title></dc:title>
      </cc:Work>
    </rdf:RDF>
  </metadata>
  <g
     transform="translate(-149.84161,-177.812)"
     id="layer1"
     inkscape:groupmode="layer"
     inkscape:label="Calque 1">
    <path
       d="m 158.58697,182.18451 -4.37268,-4.37251 -4.37268,4.37251 4.37268,4.37254 z"
       style="fill:#ffffff;fill-opacity:1;fill-rule:nonzero;stroke:none;stroke-width:0.352777"
       id="path88" />
    <path
       d="m 157.97461,182.18451 -3.76032,-3.76033 -3.76033,3.76033 3.76033,3.76032 z"
       style="fill:#000000;fill-opacity:1;fill-rule:nonzero;stroke:none;stroke-width:0.352777"
       id="path90" />
    <path
       d="m 154.2193,179.52386 -0.26459,1.91823 -1.08038,-0.72761 c 0,0 -0.33073,-0.13229 -0.15434,0.17639 0.17639,0.30868 0.74965,0.97014 0.74965,0.97014 l -1.69774,0.39687 1.67569,0.37483 -0.59531,0.70556 c 0,0 -0.13229,0.37482 0.22049,0.22048 0.35278,-0.15434 0.88194,-0.55121 0.88194,-0.55121 l 0.30868,1.89618 0.35278,-1.85209 0.90399,0.50712 c 0,0 0.41307,0.15815 0.17639,-0.22048 -0.22048,-0.35278 -0.70555,-0.8158 -0.70555,-0.8158 l 1.78593,-0.24254 -1.85208,-0.44097 0.74965,-0.90399 c 0,0 0.15434,-0.44098 -0.22048,-0.19844 -0.37483,0.24253 -0.904,0.68351 -0.904,0.68351 z"
       style="fill:#ffffff;fill-opacity:1;fill-rule:nonzero;stroke:none;stroke-width:0.352777"
       id="path224" />
  </g>
</svg>
