<?xml version="1.0" encoding="UTF-8" standalone="no"?>
<svg
   xmlns:dc="http://purl.org/dc/elements/1.1/"
   xmlns:cc="http://creativecommons.org/ns#"
   xmlns:rdf="http://www.w3.org/1999/02/22-rdf-syntax-ns#"
   xmlns:svg="http://www.w3.org/2000/svg"
   xmlns="http://www.w3.org/2000/svg"
   xmlns:sodipodi="http://sodipodi.sourceforge.net/DTD/sodipodi-0.dtd"
   xmlns:inkscape="http://www.inkscape.org/namespaces/inkscape"
   inkscape:version="1.0 (4035a4fb49, 2020-05-01)"
   sodipodi:docname="pre.svg"
   viewBox="0 0 23.3724 23.372401"
   height="23.3724"
   width="23.3724"
   xml:space="preserve"
   id="svg2"
   version="1.1"><metadata
     id="metadata8"><rdf:RDF><cc:Work
         rdf:about=""><dc:format>image/svg+xml</dc:format><dc:type
           rdf:resource="http://purl.org/dc/dcmitype/StillImage" /><dc:title></dc:title></cc:Work></rdf:RDF></metadata><defs
     id="defs6" /><sodipodi:namedview
     inkscape:current-layer="g10"
     inkscape:window-maximized="1"
     inkscape:window-y="-8"
     inkscape:window-x="56"
     inkscape:cy="-85.515068"
     inkscape:cx="149.35332"
     inkscape:zoom="1.8"
     fit-margin-bottom="0"
     fit-margin-right="0"
     fit-margin-left="0"
     fit-margin-top="0"
     showgrid="false"
     id="namedview4"
     inkscape:window-height="1417"
     inkscape:window-width="2496"
     inkscape:pageshadow="2"
     inkscape:pageopacity="0"
     guidetolerance="10"
     gridtolerance="10"
     objecttolerance="10"
     borderopacity="1"
     bordercolor="#666666"
     pagecolor="#ffffff" /><g
     transform="matrix(1.3333333,0,0,-1.3333333,-272.02799,343.02079)"
     inkscape:label="disciplines2"
     inkscape:groupmode="layer"
     id="g10"><path
       id="path84"
       style="fill:#ffffff;fill-opacity:1;fill-rule:nonzero;stroke:none"
       d="m 221.5503,239.7363 v 17.5293 H 204.021 v -17.5293 z" /><path
       id="path86"
       style="fill:#000000;fill-opacity:1;fill-rule:nonzero;stroke:none"
       d="m 220.3228,240.9639 v 15.0742 h -15.0743 v -15.0742 z" /><path
       id="path226"
       style="fill:#ffffff;fill-opacity:1;fill-rule:nonzero;stroke:none"
       d="m 212.6353,255.2334 -0.67,-4.8604 -2.7373,1.8438 c -5e-4,0 -0.8379,0.335 -0.3916,-0.4473 0.4473,-0.7822 1.8994,-2.458 1.8994,-2.458 l -4.3017,-1.0058 4.2461,-0.9493 -1.5088,-1.788 c 0,0 -0.335,-0.9493 0.5591,-0.5586 0.894,0.3916 2.2348,1.3965 2.2348,1.3965 l 0.7818,-4.8038 0.894,4.6924 2.2901,-1.2851 c 0,0 1.0468,-0.4004 0.4477,0.5586 -0.5591,0.8945 -1.7886,2.0673 -1.7886,2.0673 l 4.5259,0.6143 -4.6929,1.1172 1.899,2.291 c 0,0 0.3911,1.1172 -0.5586,0.5029 -0.9497,-0.6152 -2.2906,-1.7324 -2.2906,-1.7324 z" /></g></svg>
